<svg width="24" height="24" viewBox="0 0 24 24" fill="none" xmlns="http://www.w3.org/2000/svg">
<g clip-path="url(#clip0_7438_115466)">
<path fill-rule="evenodd" clip-rule="evenodd" d="M11.9544 2.14687C6.48173 2.14687 2.04433 6.58821 2.04433 12.0681C2.04433 17.5479 6.48173 21.9892 11.9544 21.9892C14.1104 21.9892 16.1043 21.3005 17.7305 20.1307C17.8577 20.0392 18.0193 20.0097 18.1707 20.0503L21.6706 20.9891L20.6419 17.146C20.6076 17.0175 20.6235 16.8808 20.6865 16.7637C21.4378 15.3664 21.8644 13.7679 21.8644 12.0681C21.8644 6.58821 17.427 2.14687 11.9544 2.14687ZM1 12.0681C1 6.01249 5.90391 1.10254 11.9544 1.10254C18.0048 1.10254 22.9087 6.01249 22.9087 12.0681C22.9087 13.8701 22.474 15.5721 21.7035 17.0731L22.9133 21.5927C22.9615 21.7729 22.9099 21.9652 22.778 22.0971C22.646 22.2289 22.4538 22.2804 22.2736 22.2321L18.1357 21.1222C16.3763 22.328 14.2469 23.0336 11.9544 23.0336C5.90391 23.0336 1 18.1236 1 12.0681Z" fill="black"/>
</g>
<path d="M14.3571 8.85714C13.505 8.85614 12.688 8.51717 12.0854 7.91459C11.4828 7.31202 11.1439 6.49503 11.1429 5.64286C11.1429 5.47236 11.0751 5.30885 10.9546 5.18829C10.834 5.06773 10.6705 5 10.5 5C10.3295 5 10.166 5.06773 10.0454 5.18829C9.92487 5.30885 9.85714 5.47236 9.85714 5.64286C9.85614 6.49503 9.51717 7.31202 8.9146 7.91459C8.31202 8.51717 7.49503 8.85614 6.64286 8.85714C6.47236 8.85714 6.30885 8.92487 6.18829 9.04543C6.06773 9.16599 6 9.3295 6 9.5C6 9.6705 6.06773 9.83401 6.18829 9.95457C6.30885 10.0751 6.47236 10.1429 6.64286 10.1429C7.49503 10.1439 8.31202 10.4828 8.9146 11.0854C9.51717 11.688 9.85614 12.505 9.85714 13.3571C9.85714 13.5276 9.92487 13.6912 10.0454 13.8117C10.166 13.9323 10.3295 14 10.5 14C10.6705 14 10.834 13.9323 10.9546 13.8117C11.0751 13.6912 11.1429 13.5276 11.1429 13.3571C11.1439 12.505 11.4828 11.688 12.0854 11.0854C12.688 10.4828 13.505 10.1439 14.3571 10.1429C14.5276 10.1429 14.6912 10.0751 14.8117 9.95457C14.9323 9.83401 15 9.6705 15 9.5C15 9.3295 14.9323 9.16599 14.8117 9.04543C14.6912 8.92487 14.5276 8.85714 14.3571 8.85714ZM10.5 11.3C10.1149 10.6508 9.3492 9.88506 8.7 9.5C9.3492 9.11494 10.1149 8.3492 10.5 7.7C10.8851 8.3492 11.6508 9.11494 12.3 9.5C11.6508 9.88506 10.8851 10.6508 10.5 11.3Z" fill="black"/>
<path d="M18.5 0.5C18.7652 0.5 19.0195 0.605432 19.207 0.792969L19.2734 0.866211C19.4191 1.04392 19.4998 1.26728 19.5 1.49902L19.5098 1.69727C19.5557 2.15498 19.7588 2.58496 20.0869 2.91309L20.2334 3.0459C20.5893 3.3376 21.0368 3.49946 21.501 3.5H21.5C21.7652 3.5 22.0195 3.60543 22.207 3.79297L22.2734 3.86621C22.4193 4.04417 22.5 4.26791 22.5 4.5C22.5 4.73209 22.4193 4.95583 22.2734 5.13379L22.207 5.20703C22.0195 5.39457 21.7652 5.49902 21.5 5.49902L21.501 5.5C20.9706 5.50062 20.462 5.71187 20.0869 6.08691C19.7119 6.46196 19.5006 6.97058 19.5 7.50098C19.4998 7.73272 19.4191 7.95608 19.2734 8.13379L19.207 8.20703C19.0195 8.39457 18.7652 8.5 18.5 8.5C18.2679 8.5 18.0442 8.41927 17.8662 8.27344L17.793 8.20703C17.6057 8.01973 17.5003 7.76584 17.5 7.50098L17.4902 7.30273C17.4508 6.91036 17.2959 6.53837 17.0459 6.2334L16.9131 6.08691C16.538 5.71187 16.0294 5.50062 15.499 5.5V5.49902C15.2673 5.4988 15.0439 5.41907 14.8662 5.27344L14.793 5.20703C14.6054 5.01949 14.5 4.76522 14.5 4.5C14.5 4.23478 14.6054 3.98051 14.793 3.79297L14.8662 3.72656C15.0439 3.58093 15.2673 3.50023 15.499 3.5L15.6973 3.49023C16.155 3.44427 16.585 3.24121 16.9131 2.91309L17.0459 2.7666C17.3376 2.41075 17.4995 1.96317 17.5 1.49902C17.5003 1.23416 17.6057 0.980275 17.793 0.792969L17.8662 0.726562C18.0442 0.580727 18.2679 0.5 18.5 0.5Z" fill="black" stroke="#E5F2FD"/>
<path d="M17.0733 13.8391H17.0643C17.0343 13.8391 17.0047 13.8452 16.9771 13.8568C16.9495 13.8684 16.9245 13.8854 16.9035 13.9068C16.8825 13.9282 16.866 13.9536 16.8549 13.9814C16.8438 14.0092 16.8384 14.039 16.8389 14.0689C16.8399 14.1304 16.865 14.189 16.9089 14.232C16.9528 14.275 17.0118 14.299 17.0733 14.2988C17.1342 14.2988 17.1927 14.2746 17.2358 14.2315C17.2789 14.1884 17.3032 14.1299 17.3032 14.0689C17.3032 14.008 17.2789 13.9495 17.2358 13.9064C17.1927 13.8633 17.1342 13.8391 17.0733 13.8391Z" fill="black"/>
<path d="M17.0688 13.3793C17.0989 13.3793 17.1288 13.3734 17.1567 13.3618C17.1846 13.3503 17.21 13.3334 17.2313 13.312C17.2527 13.2907 17.2696 13.2653 17.2812 13.2374C17.2927 13.2095 17.2987 13.1796 17.2986 13.1494V12.2299C17.2986 12.1689 17.2744 12.1104 17.2313 12.0673C17.1882 12.0242 17.1297 12 17.0688 12C17.0078 12 16.9493 12.0242 16.9062 12.0673C16.8631 12.1104 16.8389 12.1689 16.8389 12.2299V13.1494C16.8388 13.1796 16.8448 13.2095 16.8563 13.2374C16.8679 13.2653 16.8848 13.2907 16.9062 13.312C16.9275 13.3334 16.9529 13.3503 16.9808 13.3618C17.0087 13.3734 17.0386 13.3793 17.0688 13.3793Z" fill="black"/>
<path d="M17.0688 14.7587C17.0386 14.7586 17.0087 14.7646 16.9808 14.7761C16.9529 14.7877 16.9275 14.8046 16.9062 14.826C16.8848 14.8473 16.8679 14.8727 16.8563 14.9006C16.8448 14.9285 16.8388 14.9584 16.8389 14.9886V15.9081C16.8389 15.9691 16.8631 16.0275 16.9062 16.0706C16.9493 16.1138 17.0078 16.138 17.0688 16.138C17.1297 16.138 17.1882 16.1138 17.2313 16.0706C17.2744 16.0275 17.2986 15.9691 17.2986 15.9081V14.9886C17.2987 14.9584 17.2927 14.9285 17.2812 14.9006C17.2696 14.8727 17.2527 14.8473 17.2313 14.826C17.21 14.8046 17.1846 14.7877 17.1567 14.7761C17.1288 14.7646 17.0989 14.7586 17.0688 14.7587Z" fill="black"/>
<path d="M19.1381 14.0689C19.1381 14.0387 19.1322 14.0088 19.1206 13.9809C19.1091 13.953 19.0922 13.9277 19.0708 13.9063C19.0495 13.885 19.0241 13.8681 18.9962 13.8565C18.9683 13.845 18.9384 13.839 18.9082 13.8391H17.9887C17.9277 13.8391 17.8692 13.8633 17.8261 13.9064C17.783 13.9495 17.7588 14.008 17.7588 14.0689C17.7588 14.1299 17.783 14.1884 17.8261 14.2315C17.8692 14.2746 17.9277 14.2988 17.9887 14.2988H18.9082C18.9384 14.2988 18.9683 14.2929 18.9962 14.2814C19.0241 14.2698 19.0495 14.2529 19.0708 14.2315C19.0922 14.2102 19.1091 14.1848 19.1206 14.1569C19.1322 14.129 19.1381 14.0991 19.1381 14.0689Z" fill="black"/>
<path d="M16.1494 13.8391H15.2299C15.1689 13.8391 15.1104 13.8633 15.0673 13.9064C15.0242 13.9495 15 14.008 15 14.0689C15 14.1299 15.0242 14.1884 15.0673 14.2315C15.1104 14.2746 15.1689 14.2988 15.2299 14.2988H16.1494C16.2104 14.2988 16.2689 14.2746 16.312 14.2315C16.3551 14.1884 16.3793 14.1299 16.3793 14.0689C16.3793 14.008 16.3551 13.9495 16.312 13.9064C16.2689 13.8633 16.2104 13.8391 16.1494 13.8391Z" fill="black"/>
<defs>
<clipPath id="clip0_7438_115466">
<rect width="21.931" height="21.931" fill="white" transform="translate(1 1.10254)"/>
</clipPath>
</defs>
</svg>
