<svg width="66" height="16" viewBox="0 0 66 16" fill="none" xmlns="http://www.w3.org/2000/svg">
<g clip-path="url(#clip0_11399_77096)">
<path fill-rule="evenodd" clip-rule="evenodd" d="M5.66017 0.015264C4.03119 0.015264 3.21607 0.015264 2.34531 0.281828C1.38455 0.624728 0.626937 1.37086 0.278762 2.3183C0.0012207 3.18448 0.0012207 3.98602 0.0012207 5.59093V10.4334C0.0012207 12.0469 0.0012207 12.8417 0.271886 13.706C0.620063 14.6529 1.37767 15.399 2.33844 15.7419C3.21732 16.0165 4.03119 16.0165 5.66017 16.0165H10.5821C12.213 16.0165 13.0263 16.0165 13.9033 15.7419C14.8647 15.399 15.6217 14.6529 15.9698 13.706C16.2474 12.8399 16.2474 12.0383 16.2474 10.4334V5.59773C16.2474 3.99095 16.2474 3.18941 15.9698 2.32507C15.6217 1.37825 14.864 0.632118 13.9033 0.289215C13.0182 0.0146484 12.213 0.0146484 10.574 0.0146484H5.65956L5.66017 0.015264Z" fill="#00D633"/>
<path d="M8.78162 7.23831C10.4935 7.59956 11.276 8.29801 11.276 9.47811C11.276 10.9576 10.0528 12.0496 8.14325 12.1652L7.95693 13.0403C7.93875 13.1258 7.86214 13.1871 7.7734 13.1871H6.30439C6.18331 13.1871 6.09395 13.0758 6.12193 12.9598L6.3577 11.9812C5.41121 11.7159 4.64955 11.2 4.20555 10.5632C4.14964 10.483 4.16819 10.3734 4.24614 10.3137L5.27291 9.52721C5.35754 9.46236 5.47883 9.48136 5.54138 9.56711C6.08547 10.3129 6.92017 10.7546 7.92571 10.7546C8.83052 10.7546 9.51524 10.3211 9.51524 9.69486C9.51524 9.21321 9.1729 8.99646 8.02354 8.75561C6.04268 8.34616 5.26012 7.62366 5.26012 6.44351C5.26012 5.07426 6.42857 4.03992 8.19113 3.90558L8.38354 3.00177C8.40177 2.91624 8.47833 2.85498 8.56707 2.85498H10.0164C10.1359 2.85498 10.225 2.96369 10.1997 3.07878L9.97688 4.09146C10.7353 4.32138 11.3529 4.73249 11.7373 5.23981C11.7969 5.31841 11.7815 5.42976 11.7045 5.49196L10.7677 6.24851C10.6863 6.31426 10.5675 6.29991 10.5013 6.21926C10.0252 5.63931 9.27561 5.31156 8.46371 5.31156C7.5589 5.31156 6.99643 5.69691 6.99643 6.25086C6.99643 6.70846 7.4366 6.94931 8.78162 7.23831Z" fill="white"/>
<path d="M25.6313 4.11225C25.6038 4.04031 25.5339 3.99268 25.4558 3.99268H23.931C23.8529 3.99268 23.783 4.04036 23.7555 4.11236L20.818 11.8055C20.7719 11.9263 20.8625 12.0552 20.9935 12.0552H22.1486C22.2269 12.0552 22.2971 12.0072 22.3244 11.9348L22.9517 10.2698H26.4065L27.0393 11.9352C27.0667 12.0074 27.1367 12.0552 27.2149 12.0552H28.3987C28.5298 12.0552 28.6204 11.9262 28.5742 11.8054L25.6313 4.11225ZM23.4534 8.93914L24.6677 5.70509L25.8991 8.93914H23.4534Z" fill="black"/>
<path d="M36.0027 10.8407C35.8969 10.8495 35.7964 10.8539 35.6531 10.8539C35.1743 10.8539 34.8778 10.7922 34.8778 10.2756V7.38406H35.9273C36.0309 7.38406 36.1149 7.30141 36.1149 7.19941V6.3392C36.1149 6.2372 36.0309 6.1545 35.9273 6.1545H34.8778V4.63235C34.8778 4.53035 34.7938 4.44767 34.6902 4.44767H33.6059C33.5023 4.44767 33.4183 4.53035 33.4183 4.63235V6.1545H31.0525V5.89626C31.0525 5.26741 31.3319 5.11585 31.8507 5.11585C31.939 5.11585 32.0045 5.11585 32.0684 5.11735C32.174 5.1199 32.2611 5.0368 32.2611 4.93278V4.06607C32.2611 3.96752 32.1824 3.88612 32.0824 3.88157C31.9384 3.875 31.8307 3.875 31.6683 3.875C30.2601 3.875 29.5703 4.5656 29.5703 5.80076V6.1545H28.9369C28.8333 6.1545 28.7493 6.2372 28.7493 6.3392V7.19941C28.7493 7.30141 28.8333 7.38406 28.9369 7.38406H29.5703V11.8708C29.5703 11.9728 29.6542 12.0555 29.7578 12.0555H30.865C30.9686 12.0555 31.0525 11.9728 31.0525 11.8708V7.38406H33.4183V10.5451C33.4183 11.7523 34.0454 12.1228 35.2199 12.1228C35.5257 12.1228 35.8089 12.1006 36.0482 12.0651C36.1394 12.0516 36.2062 11.9735 36.2062 11.8826V11.0246C36.2062 10.9165 36.1121 10.8315 36.0027 10.8407Z" fill="black"/>
<path d="M39.7235 6.04199C38.0417 6.04199 36.8389 7.37269 36.8389 9.10754C36.8389 10.9323 38.0418 12.1787 39.7805 12.1787C40.9065 12.1787 41.8409 11.6374 42.3038 10.6948C42.3516 10.5975 42.3012 10.4806 42.1982 10.4434L41.3003 10.1193C41.2086 10.0862 41.1056 10.1277 41.0658 10.2156C40.8457 10.7024 40.3698 10.9604 39.7863 10.9604C38.954 10.9604 38.3667 10.382 38.2584 9.42759H42.2326C42.3362 9.42759 42.4201 9.34489 42.4201 9.24289V8.97279C42.4201 7.33899 41.4794 6.04199 39.7235 6.04199ZM38.3211 8.38889C38.5206 7.63094 39.0395 7.23794 39.7122 7.23794C40.5331 7.23794 40.9264 7.77129 40.9379 8.38889H38.3211Z" fill="black"/>
<path d="M46.7787 6.12771C46.715 6.12346 46.6449 6.12061 46.5646 6.12061C45.812 6.12061 45.2077 6.47436 44.9455 7.00776V6.33901C44.9455 6.23701 44.8615 6.15431 44.758 6.15431H43.6508C43.5472 6.15431 43.4633 6.23701 43.4633 6.33901V11.8706C43.4633 11.9726 43.5472 12.0553 43.6508 12.0553H44.758C44.8615 12.0553 44.9455 11.9726 44.9455 11.8706V9.00656C44.9455 8.08011 45.5955 7.55236 46.4449 7.55236C46.5593 7.55236 46.6538 7.55626 46.7485 7.56411C46.8581 7.57316 46.9523 7.48851 46.9523 7.38021V6.31191C46.9523 6.21521 46.8767 6.13426 46.7787 6.12771Z" fill="black"/>
<path d="M51.1023 6.04199C50.3385 6.04199 49.7684 6.33959 49.4035 6.77189V6.33899C49.4035 6.23699 49.3195 6.15429 49.216 6.15429H48.1088C48.0052 6.15429 47.9213 6.23699 47.9213 6.33899V13.8805C47.9213 13.9825 48.0052 14.0652 48.1088 14.0652H49.216C49.3195 14.0652 49.4035 13.9825 49.4035 13.8805V11.4432C49.7684 11.8811 50.3385 12.1787 51.1023 12.1787C52.767 12.1787 53.725 10.7863 53.725 9.10754C53.725 7.43444 52.767 6.04199 51.1023 6.04199ZM50.7773 10.9155C49.9736 10.9155 49.3694 10.3259 49.3694 9.28159V8.94474C49.3694 7.88359 49.9736 7.30529 50.7773 7.30529C51.7237 7.30529 52.2314 8.04079 52.2314 9.10754C52.2314 10.1799 51.7237 10.9155 50.7773 10.9155Z" fill="black"/>
<path d="M59.8021 10.9529C59.5711 10.9427 59.4772 10.8264 59.4772 10.5617V8.08569C59.4772 6.72139 58.5877 6.04199 57.1113 6.04199C55.8345 6.04199 54.9709 6.72089 54.6267 7.60994C54.5851 7.71684 54.6495 7.83509 54.7638 7.85834L55.7934 8.06864C55.8842 8.08714 55.9756 8.03764 56.0071 7.95194C56.1726 7.50209 56.4925 7.27719 57.054 7.27719C57.7495 7.27719 58.0287 7.60844 58.0287 8.14189V8.23729L56.4554 8.54609C55.2755 8.77069 54.3688 9.26479 54.3688 10.4157C54.3688 11.4656 55.2415 12.1563 56.3985 12.1563C57.1794 12.1563 57.7952 11.9148 58.1775 11.4994C58.3973 11.9597 58.9167 12.1607 59.8153 12.0743C59.9113 12.0651 59.9844 11.9851 59.9844 11.8902V11.1372C59.9844 11.0374 59.9036 10.9573 59.8021 10.9529ZM58.0287 9.96659C58.0287 10.6572 57.3621 11.0221 56.661 11.0221C56.1589 11.0221 55.834 10.7751 55.834 10.3428C55.834 9.84304 56.2447 9.66904 56.7976 9.55674L58.0287 9.30409V9.96659Z" fill="black"/>
<path d="M65.7396 6.1543H64.6338C64.5536 6.1543 64.482 6.20475 64.4561 6.2797L63.1199 10.1631L61.7496 6.2784C61.7237 6.2041 61.6527 6.1543 61.5724 6.1543H60.4317C60.3007 6.1543 60.2103 6.2832 60.2565 6.40395L62.3274 11.8306L62.1167 12.3415C61.9339 12.7907 61.7115 12.9086 61.2729 12.9086C61.1734 12.9086 61.0977 12.9051 61.0185 12.899C60.9099 12.8906 60.8165 12.9755 60.8165 13.0831V13.9163C60.8165 14.0113 60.8901 14.0912 60.9861 14.1001C61.0983 14.1105 61.2074 14.1158 61.4095 14.1158C62.6924 14.1158 63.228 13.4701 63.5931 12.4988L65.9152 6.4039C65.9614 6.28315 65.8706 6.1543 65.7396 6.1543Z" fill="black"/>
</g>
<defs>
<clipPath id="clip0_11399_77096">
<rect width="66" height="16" fill="white"/>
</clipPath>
</defs>
</svg>
