<svg xmlns="http://www.w3.org/2000/svg" viewBox="0 0 48 48">
<defs>
  <style>
    path, polygon, polyline, rect, circle, ellipse, line {vector-effect: non-scaling-stroke}
  </style>
</defs>
  <g id="Layer_2" data-name="Layer 2">
    <g id="Layer_1-2" data-name="Layer 1">
      <g>
        <circle cx="24" cy="24" r="24" fill="#b28e86"/>
        <g>
          <line x1="26.5" y1="12.5" x2="26.5" y2="12.5" fill="none" stroke="#fff" stroke-linecap="round" stroke-linejoin="round"/>
          <line x1="15.5" y1="15.5" x2="15.5" y2="15.5" fill="none" stroke="#fff" stroke-linecap="round" stroke-linejoin="round"/>
          <line x1="22.5" y1="13.5" x2="22.5" y2="13.5" fill="none" stroke="#fff" stroke-linecap="round" stroke-linejoin="round"/>
          <line x1="27.5" y1="15.5" x2="27.5" y2="15.5" fill="none" stroke="#fff" stroke-linecap="round" stroke-linejoin="round"/>
          <line x1="30.5" y1="15.5" x2="30.5" y2="15.5" fill="none" stroke="#fff" stroke-linecap="round" stroke-linejoin="round"/>
          <line x1="28.5" y1="18.5" x2="28.5" y2="18.5" fill="none" stroke="#fff" stroke-linecap="round" stroke-linejoin="round"/>
          <line x1="23.5" y1="16.5" x2="23.5" y2="16.5" fill="none" stroke="#fff" stroke-linecap="round" stroke-linejoin="round"/>
          <line x1="13.5" y1="27.5" x2="13.5" y2="27.5" fill="none" stroke="#fff" stroke-linecap="round" stroke-linejoin="round"/>
          <line x1="14.5" y1="18.5" x2="14.5" y2="18.5" fill="none" stroke="#fff" stroke-linecap="round" stroke-linejoin="round"/>
          <line x1="12.5" y1="21.5" x2="12.5" y2="21.5" fill="none" stroke="#fff" stroke-linecap="round" stroke-linejoin="round"/>
          <line x1="14.5" y1="23.5" x2="14.5" y2="23.5" fill="none" stroke="#fff" stroke-linecap="round" stroke-linejoin="round"/>
          <line x1="15.5" y1="21.5" x2="15.5" y2="21.5" fill="none" stroke="#fff" stroke-linecap="round" stroke-linejoin="round"/>
          <line x1="17.5" y1="21.5" x2="17.5" y2="21.5" fill="none" stroke="#fff" stroke-linecap="round" stroke-linejoin="round"/>
          <line x1="19.5" y1="22.5" x2="19.5" y2="22.5" fill="none" stroke="#fff" stroke-linecap="round" stroke-linejoin="round"/>
          <line x1="21.5" y1="21.5" x2="21.5" y2="21.5" fill="none" stroke="#fff" stroke-linecap="round" stroke-linejoin="round"/>
          <line x1="23.5" y1="22.5" x2="23.5" y2="22.5" fill="none" stroke="#fff" stroke-linecap="round" stroke-linejoin="round"/>
          <line x1="24.5" y1="19.5" x2="24.5" y2="19.5" fill="none" stroke="#fff" stroke-linecap="round" stroke-linejoin="round"/>
          <line x1="21.5" y1="24.5" x2="21.5" y2="24.5" fill="none" stroke="#fff" stroke-linecap="round" stroke-linejoin="round"/>
          <line x1="23.5" y1="26.5" x2="23.5" y2="26.5" fill="none" stroke="#fff" stroke-linecap="round" stroke-linejoin="round"/>
          <line x1="24.5" y1="24.5" x2="24.5" y2="24.5" fill="none" stroke="#fff" stroke-linecap="round" stroke-linejoin="round"/>
          <line x1="25.5" y1="26.5" x2="25.5" y2="26.5" fill="none" stroke="#fff" stroke-linecap="round" stroke-linejoin="round"/>
          <line x1="20.5" y1="26.5" x2="20.5" y2="26.5" fill="none" stroke="#fff" stroke-linecap="round" stroke-linejoin="round"/>
          <line x1="18.5" y1="25.5" x2="18.5" y2="25.5" fill="none" stroke="#fff" stroke-linecap="round" stroke-linejoin="round"/>
          <line x1="31.5" y1="17.5" x2="31.5" y2="17.5" fill="none" stroke="#fff" stroke-linecap="round" stroke-linejoin="round"/>
          <line x1="30.5" y1="19.5" x2="30.5" y2="19.5" fill="none" stroke="#fff" stroke-linecap="round" stroke-linejoin="round"/>
          <line x1="33.5" y1="21.5" x2="33.5" y2="21.5" fill="none" stroke="#fff" stroke-linecap="round" stroke-linejoin="round"/>
          <line x1="33.5" y1="19.5" x2="33.5" y2="19.5" fill="none" stroke="#fff" stroke-linecap="round" stroke-linejoin="round"/>
          <line x1="31.5" y1="23.5" x2="31.5" y2="23.5" fill="none" stroke="#fff" stroke-linecap="round" stroke-linejoin="round"/>
          <line x1="29.5" y1="22.5" x2="29.5" y2="22.5" fill="none" stroke="#fff" stroke-linecap="round" stroke-linejoin="round"/>
          <line x1="35.5" y1="23.5" x2="35.5" y2="23.5" fill="none" stroke="#fff" stroke-linecap="round" stroke-linejoin="round"/>
          <line x1="33.5" y1="24.5" x2="33.5" y2="24.5" fill="none" stroke="#fff" stroke-linecap="round" stroke-linejoin="round"/>
          <line x1="34.5" y1="27.5" x2="34.5" y2="27.5" fill="none" stroke="#fff" stroke-linecap="round" stroke-linejoin="round"/>
          <line x1="31.5" y1="29.5" x2="31.5" y2="29.5" fill="none" stroke="#fff" stroke-linecap="round" stroke-linejoin="round"/>
          <line x1="31.5" y1="31.5" x2="31.5" y2="31.5" fill="none" stroke="#fff" stroke-linecap="round" stroke-linejoin="round"/>
          <line x1="29.5" y1="33.5" x2="29.5" y2="33.5" fill="none" stroke="#fff" stroke-linecap="round" stroke-linejoin="round"/>
          <line x1="25.5" y1="34.5" x2="25.5" y2="34.5" fill="none" stroke="#fff" stroke-linecap="round" stroke-linejoin="round"/>
          <line x1="22.5" y1="35.5" x2="22.5" y2="35.5" fill="none" stroke="#fff" stroke-linecap="round" stroke-linejoin="round"/>
          <line x1="20.5" y1="33.5" x2="20.5" y2="33.5" fill="none" stroke="#fff" stroke-linecap="round" stroke-linejoin="round"/>
          <line x1="19.5" y1="31.5" x2="19.5" y2="31.5" fill="none" stroke="#fff" stroke-linecap="round" stroke-linejoin="round"/>
          <line x1="16.5" y1="32.5" x2="16.5" y2="32.5" fill="none" stroke="#fff" stroke-linecap="round" stroke-linejoin="round"/>
          <line x1="18.5" y1="33.5" x2="18.5" y2="33.5" fill="none" stroke="#fff" stroke-linecap="round" stroke-linejoin="round"/>
          <line x1="14.5" y1="30.5" x2="14.5" y2="30.5" fill="none" stroke="#fff" stroke-linecap="round" stroke-linejoin="round"/>
          <line x1="16.5" y1="29.5" x2="16.5" y2="29.5" fill="none" stroke="#fff" stroke-linecap="round" stroke-linejoin="round"/>
          <line x1="17.5" y1="27.5" x2="17.5" y2="27.5" fill="none" stroke="#fff" stroke-linecap="round" stroke-linejoin="round"/>
          <line x1="19.5" y1="28.5" x2="19.5" y2="28.5" fill="none" stroke="#fff" stroke-linecap="round" stroke-linejoin="round"/>
          <line x1="21.5" y1="29.5" x2="21.5" y2="29.5" fill="none" stroke="#fff" stroke-linecap="round" stroke-linejoin="round"/>
          <line x1="22.5" y1="31.5" x2="22.5" y2="31.5" fill="none" stroke="#fff" stroke-linecap="round" stroke-linejoin="round"/>
          <line x1="22.5" y1="33.5" x2="22.5" y2="33.5" fill="none" stroke="#fff" stroke-linecap="round" stroke-linejoin="round"/>
          <line x1="25.5" y1="31.5" x2="25.5" y2="31.5" fill="none" stroke="#fff" stroke-linecap="round" stroke-linejoin="round"/>
          <line x1="24.5" y1="29.5" x2="24.5" y2="29.5" fill="none" stroke="#fff" stroke-linecap="round" stroke-linejoin="round"/>
          <line x1="27.5" y1="32.5" x2="27.5" y2="32.5" fill="none" stroke="#fff" stroke-linecap="round" stroke-linejoin="round"/>
          <line x1="26.5" y1="29.5" x2="26.5" y2="29.5" fill="none" stroke="#fff" stroke-linecap="round" stroke-linejoin="round"/>
          <line x1="28.5" y1="29.5" x2="28.5" y2="29.5" fill="none" stroke="#fff" stroke-linecap="round" stroke-linejoin="round"/>
          <line x1="32.5" y1="27.5" x2="32.5" y2="27.5" fill="none" stroke="#fff" stroke-linecap="round" stroke-linejoin="round"/>
          <line x1="29.5" y1="26.5" x2="29.5" y2="26.5" fill="none" stroke="#fff" stroke-linecap="round" stroke-linejoin="round"/>
          <line x1="31.5" y1="25.5" x2="31.5" y2="25.5" fill="none" stroke="#fff" stroke-linecap="round" stroke-linejoin="round"/>
          <line x1="27.5" y1="27.5" x2="27.5" y2="27.5" fill="none" stroke="#fff" stroke-linecap="round" stroke-linejoin="round"/>
          <line x1="28.5" y1="24.5" x2="28.5" y2="24.5" fill="none" stroke="#fff" stroke-linecap="round" stroke-linejoin="round"/>
          <line x1="26.5" y1="23.5" x2="26.5" y2="23.5" fill="none" stroke="#fff" stroke-linecap="round" stroke-linejoin="round"/>
          <line x1="21.5" y1="19.5" x2="21.5" y2="19.5" fill="none" stroke="#fff" stroke-linecap="round" stroke-linejoin="round"/>
          <line x1="27.5" y1="20.5" x2="27.5" y2="20.5" fill="none" stroke="#fff" stroke-linecap="round" stroke-linejoin="round"/>
          <line x1="25.5" y1="21.5" x2="25.5" y2="21.5" fill="none" stroke="#fff" stroke-linecap="round" stroke-linejoin="round"/>
          <line x1="17.5" y1="23.5" x2="17.5" y2="23.5" fill="none" stroke="#fff" stroke-linecap="round" stroke-linejoin="round"/>
          <line x1="15.5" y1="26.5" x2="15.5" y2="26.5" fill="none" stroke="#fff" stroke-linecap="round" stroke-linejoin="round"/>
          <line x1="17.5" y1="19.5" x2="17.5" y2="19.5" fill="none" stroke="#fff" stroke-linecap="round" stroke-linejoin="round"/>
          <line x1="24.5" y1="14.5" x2="24.5" y2="14.5" fill="none" stroke="#fff" stroke-linecap="round" stroke-linejoin="round"/>
          <line x1="25.5" y1="17.5" x2="25.5" y2="17.5" fill="none" stroke="#fff" stroke-linecap="round" stroke-linejoin="round"/>
          <line x1="20.5" y1="14.5" x2="20.5" y2="14.5" fill="none" stroke="#fff" stroke-linecap="round" stroke-linejoin="round"/>
          <line x1="17.5" y1="16.5" x2="17.5" y2="16.5" fill="none" stroke="#fff" stroke-linecap="round" stroke-linejoin="round"/>
          <line x1="19.5" y1="17.5" x2="19.5" y2="17.5" fill="none" stroke="#fff" stroke-linecap="round" stroke-linejoin="round"/>
        </g>
      </g>
    </g>
  </g>
</svg>
