<svg width="48" height="48" viewBox="0 0 48 48" fill="none" xmlns="http://www.w3.org/2000/svg">
<g clip-path="url(#clip0_2_1022)">
<path d="M24 48C37.2548 48 48 37.2548 48 24C48 10.7452 37.2548 0 24 0C10.7452 0 0 10.7452 0 24C0 37.2548 10.7452 48 24 48Z" fill="#FF585A"/>
<path d="M24 35.5C30.3513 35.5 35.5 30.3513 35.5 24C35.5 17.6487 30.3513 12.5 24 12.5C17.6487 12.5 12.5 17.6487 12.5 24C12.5 30.3513 17.6487 35.5 24 35.5Z" stroke="white" stroke-linecap="round" stroke-linejoin="round"/>
<path d="M15.8683 32.1317L32.1317 15.8683" stroke="white" stroke-linecap="round" stroke-linejoin="round"/>
</g>
<defs>
<clipPath id="clip0_2_1022">
<rect width="48" height="48" fill="white"/>
</clipPath>
</defs>
</svg>
