<?xml version="1.0" encoding="UTF-8"?>
<svg id="Layer_1" xmlns="http://www.w3.org/2000/svg" version="1.1" viewBox="0 0 187 250">
  <!-- Generator: Adobe Illustrator 29.5.0, SVG Export Plug-In . SVG Version: 2.1.0 Build 137)  -->
  <defs>
    <style>
      .st0, .st1, .st2 {
        fill: none;
      }

      .st1, .st2 {
        stroke: #fff;
        stroke-miterlimit: 10;
        stroke-width: 5.3px;
      }

      .st3 {
        fill: #fff;
      }

      .st2 {
        stroke-linecap: round;
      }
    </style>
  </defs>
  <path class="st0" d="M112.9,2.7H24C12.2,2.7,2.7,12.2,2.7,24v202c0,11.8,9.5,21.3,21.3,21.3h88.9c11.8,0,21.3-9.5,21.3-21.3V24c0-11.8-9.5-21.3-21.3-21.3Z"/>
  <path class="st1" d="M67,227.9c6.8,0,12.3-5.5,12.3-12.3s-5.5-12.3-12.3-12.3-12.3,5.5-12.3,12.3,5.5,12.3,12.3,12.3Z"/>
  <g>
    <path class="st0" d="M46.6,166.6l-5.8,1.3,15.4-27.6c-2.7-5.1-4.1-10.7-4.1-16.4v-33.2c0-19.2,15.6-34.9,34.8-34.9h44.6v-31.9c0-10.3-8.4-18.7-18.7-18.7H24c-10.3.1-18.7,8.5-18.7,18.8v202c0,10.3,8.4,18.7,18.7,18.7h88.8c10.3,0,18.7-8.4,18.7-18.7v-67.2h-44.6c-4,0-26.3,4.7-40.3,7.8Z"/>
    <path class="st0" d="M154.5,153.4c16.3,0,29.5-13.3,29.5-29.5v-33.2c0-16.3-13.3-29.6-29.5-29.6h-17.7v92.3h17.7Z"/>
    <path class="st0" d="M86.9,61.1c-16.3,0-29.5,13.3-29.5,29.6v33.2c0,5.2,1.4,10.4,4.1,15.1l.8,1.3-11.1,19.9c10.5-2.3,31.1-6.7,35.7-6.7h44.6V61.1h-44.6Z"/>
    <path class="st3" d="M131.5,226c0,10.3-8.4,18.7-18.7,18.7H24c-10.3,0-18.7-8.4-18.7-18.7V24c0-10.3,8.4-18.7,18.7-18.7h88.8c10.3,0,18.7,8.4,18.7,18.7v31.9h5.3v-31.9C136.8,10.7,126,0,112.8,0H24c-13.2,0-24,10.8-24,24v202c0,13.3,10.8,24,24,24h88.8c13.3,0,24-10.8,24-24v-67.2h-5.3v67.2Z"/>
    <path class="st3" d="M51.2,160.1l11.1-19.9-.8-1.3c-2.7-4.6-4.1-9.9-4.1-15.1v-33.2c0-16.3,13.3-29.6,29.5-29.6h44.6v-5.3h-44.6c-19.2,0-34.8,15.6-34.8,34.9v33.2c0,5.7,1.4,11.3,4.1,16.4l-15.4,27.6,5.8-1.3c14-3.2,36.4-7.8,40.3-7.8h44.6v-5.3h-44.6c-4.6,0-25.3,4.4-35.7,6.7h0Z"/>
    <path class="st3" d="M154.5,55.9h-17.7v5.3h17.7c16.3,0,29.5,13.3,29.5,29.6v33.2c0,16.3-13.3,29.5-29.5,29.5h-17.7v5.3h17.7c19.2,0,34.9-15.6,34.9-34.9v-33.2c0-19.2-15.6-34.9-34.9-34.9h0Z"/>
    <rect class="st3" x="131.5" y="55.9" width="5.3" height="5.3"/>
    <rect class="st3" x="131.5" y="153.4" width="5.3" height="5.3"/>
  </g>
  <path class="st2" d="M86.5,108.5l19.6,18.3,45.2-42.8"/>
  <path class="st2" d="M48,24.2h44"/>
</svg>