<?xml version="1.0" encoding="UTF-8"?>
<svg id="Layer_2" data-name="Layer 2" xmlns="http://www.w3.org/2000/svg" viewBox="0 0 48 48">
  <g id="Layer_1-2" data-name="Layer 1">
    <g>
      <circle cx="24" cy="24" r="24" fill="#cf142c"/>
      <path d="m20.11317,19.87355c.90049-.90057,3.08143-1.01957,3.88681.6915.8055-1.71106,2.98636-1.59206,3.88685-.6915,1.06119.84138.90598,2.73023.00541,3.6308-.96257,1.20167-3.04756,2.90709-3.69587,3.42651-.115.09219-.27766.09219-.39274,0-.6483-.51942-2.73321-2.22484-3.69587-3.42651-.90057-.90057-1.05578-2.78942.00541-3.6308Z" fill="none" stroke="#fff" stroke-linecap="round" stroke-linejoin="round"/>
      <rect x="16.5" y="10.5" width="15" height="27" rx="2" ry="2" fill="none" stroke="#fff" stroke-linecap="round" stroke-linejoin="round"/>
      <circle cx="24" cy="34.993" r="1" fill="none" stroke="#fff" stroke-linecap="round" stroke-linejoin="round"/>
      <line x1="16.5" y1="32.5" x2="31.5" y2="32.5" fill="none" stroke="#fff" stroke-linecap="round" stroke-linejoin="round"/>
      <line x1="24.5" y1="12.5" x2="26.5" y2="12.5" fill="none" stroke="#fff" stroke-linecap="round" stroke-linejoin="round"/>
      <line x1="22.5" y1="12.5" x2="22.5" y2="12.5" fill="none" stroke="#fff" stroke-linecap="round" stroke-linejoin="round"/>
    </g>
  </g>
</svg>