<svg width="14" height="8" viewBox="0 0 14 8" fill="none" xmlns="http://www.w3.org/2000/svg">
<path d="M7.75 6.25L7.39645 6.60355C7.59171 6.79882 7.90829 6.79882 8.10355 6.60355L7.75 6.25ZM13.5 0.999999C13.5 0.723857 13.2761 0.5 13 0.5L8.5 0.5C8.22386 0.5 8 0.723857 8 1C8 1.27614 8.22386 1.5 8.5 1.5L12.5 1.5V5.5C12.5 5.77614 12.7239 6 13 6C13.2761 6 13.5 5.77614 13.5 5.5L13.5 0.999999ZM5.125 3.625L5.47855 3.27145C5.29692 3.08981 5.00719 3.07536 4.80838 3.23802L5.125 3.625ZM0.683381 6.61302C0.469659 6.78789 0.438158 7.1029 0.613021 7.31662C0.787885 7.53034 1.1029 7.56184 1.31662 7.38698L0.683381 6.61302ZM8.10355 6.60355L13.3536 1.35355L12.6464 0.646446L7.39645 5.89645L8.10355 6.60355ZM8.10355 5.89645L5.47855 3.27145L4.77145 3.97855L7.39645 6.60355L8.10355 5.89645ZM4.80838 3.23802L0.683381 6.61302L1.31662 7.38698L5.44162 4.01198L4.80838 3.23802Z" fill="black"/>
</svg>
